<?xml version="1.0" encoding="UTF-8" standalone="no"?>
<!-- Created with Inkscape (http://www.inkscape.org/) -->

<svg
   width="61.210243mm"
   height="67.856339mm"
   viewBox="0 0 61.210243 67.856339"
   version="1.1"
   id="svg5"
   xml:space="preserve"
   xmlns:inkscape="http://www.inkscape.org/namespaces/inkscape"
   xmlns:sodipodi="http://sodipodi.sourceforge.net/DTD/sodipodi-0.dtd"
   xmlns="http://www.w3.org/2000/svg"
   xmlns:svg="http://www.w3.org/2000/svg"><sodipodi:namedview
     id="namedview7"
     pagecolor="#ffffff"
     bordercolor="#666666"
     borderopacity="1.0"
     inkscape:showpageshadow="2"
     inkscape:pageopacity="0.0"
     inkscape:pagecheckerboard="0"
     inkscape:deskcolor="#d1d1d1"
     inkscape:document-units="mm"
     showgrid="false" /><defs
     id="defs2" /><g
     inkscape:label="Vrstva 1"
     inkscape:groupmode="layer"
     id="layer1"
     transform="translate(-109.544,-110.80198)"><g
       id="g1630"
       transform="translate(82.028571,-37.337143)"><g
         id="g1665"><path
           style="fill:#f7f3ef;stroke-width:0.263961"
           d="m 73.885468,213.00271 c 0,-0.0548 0.207869,-0.26268 0.461932,-0.46193 l 0.461931,-0.36227 -0.36227,0.46193 c -0.344831,0.43969 -0.561593,0.57952 -0.561593,0.36227 z"
           id="path1648" /><path
           style="fill:#fcc692;stroke-width:0.263961"
           d="m 55.576561,215.71559 -1.547386,-0.22598 -1.402417,-0.64205 -1.402414,-0.64205 -1.244668,-1.14548 c -1.756639,-1.61666 -2.325243,-2.6357 -3.683849,-6.60213 l -1.070705,-3.69087 0.550715,0.21038 c 0.42209,0.16125 1.559509,0.87388 2.542796,1.65012 l 1.317046,1.03972 0.780234,0.47503 0.555221,-0.10001 0.524654,0.0674 -0.275383,-0.65765 -0.189313,-0.44498 c -0.123249,-0.28969 -1.157843,-0.74411 -2.546308,-1.75286 l -2.281994,-1.65792 -0.593708,0.30001 c -0.217805,0.11006 -0.01007,0.68542 -0.245043,0.45138 l -0.676387,-0.67368 -0.671876,-0.61737 c -0.895488,-0.82284 -4.200624,-5.31563 -6.15966,-8.41119 -2.693606,-4.25629 -4.480474,-6.70696 -7.756404,-10.63783 -1.038727,-1.73108 -2.321374,-2.73035 -2.584283,-4.34812 0.338889,-0.77911 0.541643,-0.76225 0.541643,-0.76225 4.403637,-2.49315 6.445412,-1.51316 10.675833,0.57763 l 2.404751,2.54095 2.404751,2.54095 c 0.241811,0.38482 -0.188164,0.59285 -0.282246,0.88928 l 0.242041,2.10322 -0.606529,-2.56393 0.714812,-0.34473 c 0,0 0.642574,0.49608 0.856242,0.34473 0.210681,-0.14924 0.02714,-0.9163 0.02714,-0.9163 l 0.486788,-0.54506 1.33658,1.6907 -0.678777,-0.74895 -0.578199,-0.21389 -0.587038,-0.18737 -2.706668,-12.01173 c -2.921896,-12.89711 -2.942812,-13.02892 -2.286739,-14.41149 1.440638,-2.85646 4.442742,-2.97838 6.821731,-1.229 1.652556,3.64888 2.547279,7.69716 3.97394,11.70504 l 2.505497,9.11549 c -0.10867,0.0909 0.119308,-0.30712 0.137273,1.10861 0.0045,0.35107 0.940015,0.24787 1.020486,0.009 l 0.401737,-1.1933 c 0.82662,-0.29091 0.801049,2.25784 0.822726,1.47433 l -0.547117,-0.14307 -0.547114,-0.14308 0.0757,-12.45967 0.0757,-12.45968 c 0.132043,-4.01395 8.550784,-4.71702 8.710698,-0.0521 l 0.07397,11.76274 0.223968,11.78774 c 0.06343,0.24203 0.03584,0.15557 0.09835,0.48514 0.07327,0.24732 0.310511,0.47999 0.409014,0.26876 0.170419,-0.36543 0.149845,-0.39463 0.139899,-0.52705 l 2.851127,-8.54226 c 3.213988,-9.62942 3.286614,-9.79911 4.766076,-11.13572 2.590119,-2.52598 6.643251,-0.057 6.605352,3.29326 -0.0055,0.48618 -1.115652,4.86318 -2.467032,9.72666 l -2.457057,8.84269 c 0,0 -0.09735,0.49485 0.04671,0.6633 0.170699,0.19958 0.76784,0.17655 0.76784,0.17655 l 0.304232,0.66352 -0.648979,0.86636 -1.992549,1.25527 c 1.195359,-1.26559 1.126444,-0.87034 2.245558,-2.29046 l 0.07464,-0.49891 3.554816,-5.44379 3.617315,-5.40004 c 3.332684,-2.90391 7.676762,-0.27143 7.579752,3.45011 l -3.330617,7.06786 c -1.831839,3.88732 -3.577088,7.79793 -3.878328,8.69025 l -0.547711,1.62238 -0.233027,5.34428 c -0.09961,2.27377 -0.01896,4.52833 -0.596845,6.73101 -0.370926,1.4138 -1.942349,5.0835 -1.964667,4.5012 -0.0068,-0.17636 -0.09698,-0.89139 -0.423391,-0.96048 l -0.517172,-0.10946 -0.91221,0.42337 c -0.556979,0.2585 -1.666618,0.78252 -2.610278,1.19988 -0.94366,0.41736 -1.541408,0.76292 -1.820006,0.8861 l -0.05122,0.41012 0.153988,0.39944 c 0.112265,0.29121 0.265821,0.13819 0.35524,0.43817 l 0.713933,-0.0673 1.825895,-0.87569 c 1.231568,-0.59066 3.075625,-1.56517 3.235928,-1.61821 0.154102,-0.051 -1.708084,4.25118 -2.188562,5.19444 -0.292463,0.57415 -1.199924,1.71019 -2.01658,2.52453 l -1.48483,1.48062 -1.486367,0.7246 -1.486367,0.7246 -1.681164,0.24304 -1.681165,0.24305 -4.487336,-0.0269 c -2.468035,-0.0148 -5.18366,-0.12857 -6.034723,-0.25285 z"
           id="path1642"
           sodipodi:nodetypes="ccccsscsscccccsscsscssccccccccccscccccccccccssccccccccccscsccscscccccccccsscccsscssscsscsssscccccscc" /><path
           style="fill:#f8a570;stroke-width:0.263961"
           d="m 72.023144,205.77345 1.789035,-0.71344 c 0.98397,-0.39239 2.160829,-0.94174 2.615246,-1.22078 l 0.726203,-0.33233 c 0.552804,-0.16935 1.397372,0.64651 0.948037,1.48611 -0.637758,0.55241 -1.086204,1.02023 -3.421244,1.92893 -1.08715,0.42308 -2.04608,0.80182 -2.130954,0.84164 -1.066865,0.0678 -1.278659,-1.40275 -0.526323,-1.99013 z m -24.389149,-1.09874 -2.363008,-1.79787 c -0.23512,-0.51029 -0.11014,-1.45556 0.659999,-1.41732 0.852634,0.0423 2.394473,1.11522 2.890928,1.49 0.723591,0.85527 2.801883,1.42822 2.801883,2.65484 0,1.58255 -1.211328,1.18433 -3.989802,-0.92965 z"
           id="path1632"
           sodipodi:nodetypes="cssccsccscsccs" /></g></g></g></svg>
