<?xml version="1.0" encoding="UTF-8" standalone="no"?>
<!-- Created with Inkscape (http://www.inkscape.org/) -->

<svg
   width="51.449448mm"
   height="66.69059mm"
   viewBox="0 0 51.449448 66.69059"
   version="1.1"
   id="svg5"
   xml:space="preserve"
   xmlns:inkscape="http://www.inkscape.org/namespaces/inkscape"
   xmlns:sodipodi="http://sodipodi.sourceforge.net/DTD/sodipodi-0.dtd"
   xmlns="http://www.w3.org/2000/svg"
   xmlns:svg="http://www.w3.org/2000/svg"><sodipodi:namedview
     id="namedview7"
     pagecolor="#ffffff"
     bordercolor="#666666"
     borderopacity="1.0"
     inkscape:showpageshadow="2"
     inkscape:pageopacity="0.0"
     inkscape:pagecheckerboard="0"
     inkscape:deskcolor="#d1d1d1"
     inkscape:document-units="mm"
     showgrid="false" /><defs
     id="defs2" /><g
     inkscape:label="Vrstva 1"
     inkscape:groupmode="layer"
     id="layer1"
     transform="translate(-24.440987,-6.6127751)"><g
       id="g1479"
       transform="translate(4.4002252,-83.204244)"><g
         id="g1516"><path
           style="fill:#fbcda2;stroke-width:0.26204"
           d="m 23.607846,122.38945 -0.499183,-0.58959 0.589589,0.49919 c 0.554069,0.46911 0.708881,0.67999 0.499183,0.67999 -0.04972,0 -0.315039,-0.26531 -0.589589,-0.58959 z"
           id="path1499" /><path
           style="fill:#fbca9c;stroke-width:0.26204"
           d="m 69.147744,136.73614 c -49.031979,-35.68793 -24.51599,-17.84397 0,0 z"
           id="path1497"
           sodipodi:nodetypes="cc" /><path
           style="fill:#fbca9a;stroke-width:0.26204"
           d="m 69.117347,135.66614 c -49.011715,-34.9746 -24.505857,-17.4873 0,0 z"
           id="path1495"
           sodipodi:nodetypes="cc" /><path
           style="fill:#fcc897;stroke-width:0.26204"
           d="m 69.117347,132.7837 c -49.011715,-33.052971 -24.505857,-16.52649 0,0 z"
           id="path1491"
           sodipodi:nodetypes="cc" /><path
           style="fill:#fcc896;stroke-width:0.26204"
           d="m 69.171605,131.2333 c -49.047887,-32.019371 -24.523943,-16.00969 0,0 z"
           id="path1489"
           sodipodi:nodetypes="cc" /><path
           style="fill:#fcc693;stroke-width:0.26204"
           d="m 40.85113,156.26218 c -1.077783,-0.25535 -1.856906,-0.9364 -2.318281,-2.02647 l -0.356894,-0.84321 -2.03e-4,-1.9082 -0.05021,-2.78325 2.11432,0.12641 2.470923,0.52422 0.385199,-0.31968 0.385201,-0.31969 -0.140388,-0.43253 c -0.119131,-0.36704 -0.02597,-0.45897 -0.02693,-0.70355 l -0.36445,-0.12694 -1.991078,0.0375 -2.103582,0.0125 -0.421318,0.31581 -0.295488,0.99678 -1.656777,-1.83731 c -2.934493,-3.25425 -5.330324,-6.7027 -6.409705,-12.36731 l -0.50391,-2.64453 -0.766442,-1.97383 -0.766442,-1.97384 -1.263108,-1.92839 -1.263108,-1.92839 -2.651388,-2.6204 -2.651387,-2.62039 c -0.944781,-3.47738 2.365244,-5.36826 4.950743,-4.44554 1.812369,0.8017 5.160557,3.23366 8.085205,6.08958 l 3.433861,2.64927 -0.360055,0.50715 -0.03504,0.60716 0.484317,1.89867 c 0.575971,2.25798 2.233154,3.89286 2.64363,5.14887 l 0.389847,0.33985 0.330353,0.05 c 0.27482,0.0416 0.123806,0.0169 0.417114,-0.11177 l 0.311772,-0.13676 0.025,-0.31569 -0.075,-0.3907 -0.480004,-0.64186 c -0.615606,-0.82319 -2.137594,-2.95959 -2.394775,-4.88944 l -0.171084,-1.2838 -0.603768,-0.36371 -0.653768,-0.31371 -1.941114,-12.86188 c -1.191368,-6.73033 -2.162911,-12.663204 -2.158983,-13.184225 0.07218,-3.234705 4.786311,-4.045032 6.636298,-1.980064 0.824351,1.093838 0.72389,0.918249 3.323949,13.330699 2.118621,10.1141 2.811349,13.03771 2.869072,12.10872 0.0097,-0.15699 1.318946,-6.52456 2.909318,-14.15016 l 2.891584,-13.864721 c 1.580153,-4.480346 7.326861,-3.380547 7.338233,0.689237 l -1.148988,6.785254 -1.23487,8.17173 -0.496395,0.71913 c -0.230125,0.33338 -0.204733,1.85227 -0.649017,1.642 l -0.227624,1.32288 -1.490495,6.3943 c -0.733989,3.14885 -1.311339,9.05227 -0.405753,11.86691 l 0.741326,0.97972 1.365479,0.39695 1.365479,0.39696 0.996698,-0.18055 c 0.548185,-0.0993 1.309837,-0.33894 1.692555,-0.53252 l 0.695852,-0.35197 1.016906,1.01691 1.016906,1.0169 1.166968,0.31424 1.166968,0.31423 1.181889,-0.15893 0.706868,-0.15893 1.021049,-0.71971 1.021048,-0.71971 0.485681,-0.91305 0.498181,-1.43808 0.234412,6.6488 c 0.230749,6.10223 -0.09705,7.36566 -3.147392,12.04751 l -0.404597,-0.46346 -0.617105,-0.11345 -1.342535,-0.075 -1.342532,-0.20001 -0.289447,0.18944 c -0.204649,0.13394 -0.171252,0.17908 -0.264444,0.55355 l -0.0875,0.35161 0.230875,0.36611 0.355885,0.15359 1.695062,-0.075 1.982579,-0.15 -0.214136,3.19429 c -0.0025,3.33329 -0.723299,4.05092 -3.757688,4.5123 l -10.088535,-0.0206 -10.088535,-0.0206 -0.862362,-0.20431 z m 21.065181,-24.91237 c -0.68524,-0.38056 -0.663542,-0.39906 -0.832376,-1.21643 l -0.212182,-1.02723 1.042964,-6.84967 1.468717,-7.38152 0.665324,-1.24666 1.615373,-0.19662 1.350322,-0.20001 1.10031,0.20001 0.965971,1.01598 0.815966,1.06597 0.250013,1.7813 c 0.06354,0.45275 -0.149456,3.29052 -1.32756,6.66073 l -1.824032,6.37091 -0.576159,1.35704 -1.071157,0.36704 -1.508217,0.2385 c -0.479481,-0.005 -1.314904,-0.26327 -1.64042,-0.44405 z m -7.921747,-1.23973 -0.206971,-0.14209 -0.757456,-0.96293 -0.457438,-1.01293 1.77896,-8.64992 c 1.72403,-8.38284 1.575606,-8.70075 2.295823,-9.56193 l 1.11009,-1.32736 1.41608,0.20001 h 1.06606 l 1.540968,0.84094 1.040944,1.04094 0.100005,0.82626 c 0.04139,0.34194 -0.284767,1.62906 -0.51059,2.48804 -0.225821,0.85899 -0.802792,4.57753 -1.594141,8.16279 l -1.633583,7.40104 -0.849368,1.12063 -1.099379,0.32059 -0.916487,-0.001 -0.61647,-0.051 -1.007011,-0.3921 z"
           id="path1487"
           sodipodi:nodetypes="cscccccccsscccccssccccccccscccsscsscccssccccccscsccccsscsscccsscccccccccccccccccssccccccccccccscccccccccssccccccccccsscccccsssccccccc" /><path
           style="fill:#fabb88;stroke-width:0.26204"
           d="m 39.938881,147.15963 c -29.559404,-42.63692 -14.779702,-21.31846 0,0 z"
           id="path1485"
           sodipodi:nodetypes="cc" /><path
           style="fill:#fab581;stroke-width:0.26204"
           d="m 62.876815,149.51922 c -44.85136,-44.20998 -22.42568,-22.10499 0,0 z"
           id="path1483"
           sodipodi:nodetypes="cc" /><path
           style="fill:#f8a570;stroke-width:0.26204"
           d="m 38.99951,147.34875 h 2.025193 2.025194 c 0.748366,-0.0249 0.769409,1.9095 0.214403,1.93726 -0.227969,0.0875 -1.344042,0.15906 -2.480157,0.15906 h -2.065669 c -0.882181,-0.0442 -0.797733,-2.05174 0.281036,-2.09632 z m 22.825543,1.92845 c -0.685631,-0.41574 -0.570588,-1.77662 0.41435,-1.95592 l 1.501717,0.0793 1.501714,0.0792 c 0.975339,0.34271 0.889389,1.45966 -2.44e-4,1.83428 l -1.544995,0.0505 c -0.849745,0.0278 -1.69239,-0.0115 -1.872542,-0.0874 z m 0.325301,-15.78118 c -1.20297,-0.37503 -1.8513,-1.38936 -2.64912,-2.29803 -4.509583,2.46901 -8.185289,-0.21824 -8.535865,-4.41916 l 1.61317,-8.10362 c 0.887243,-4.45699 1.768349,-8.47502 1.958014,-8.92896 0.759787,-1.98461 4.055163,-2.74394 5.494892,-2.61266 2.184633,0.35688 4.086457,2.61333 4.086457,4.59023 v 0.55332 l 0.851629,-0.20945 c 2.061937,-0.50711 3.739789,0.0141 5.125364,1.5922 0.948116,0.94631 1.368911,1.73037 1.39531,3.08594 l -1.337229,6.94749 c -0.735475,3.82112 -1.498656,7.2577 -1.695956,7.63684 -1.171882,2.25196 -3.988218,3.2192 -6.306666,2.16595 z m 3.501783,-1.98103 0.722093,-0.37341 0.30465,-0.66863 c 0.389638,-0.85516 2.679819,-12.61261 2.679819,-13.75779 v -0.8636 l -0.890935,-0.89094 -0.890936,-0.89093 h -1.225539 -1.225543 l -0.752541,0.75254 c -0.4139,0.4139 -0.816393,1.03297 -0.894432,1.37571 -0.390104,1.71333 -2.218623,11.45261 -2.257075,12.0219 -0.02434,0.36031 -0.03119,0.93221 -0.01525,1.27089 l 0.02902,0.6158 0.890936,0.89093 0.890935,0.89094 h 0.956357 0.956356 z m -8.247015,-1.44918 c 0.362149,-0.13768 0.845068,-0.53514 1.07315,-0.88324 l 0.414694,-0.6329 1.280025,-6.38836 c 0.704015,-3.5136 1.475319,-7.20945 1.714011,-8.213 l 0.365788,-1.53792 0.12123,-0.67565 c 0.215172,-2.81086 -3.257282,-3.00079 -4.924653,-2.28368 -1.015614,0.66546 -1.106366,0.97428 -2.76909,9.42306 -1.735029,8.81616 -1.732197,8.79228 -1.171696,9.87617 l 0.396354,0.76646 0.717315,0.38922 c 0.836932,0.45411 1.855078,0.51259 2.782872,0.15984 z m -18.102954,1.49504 c -0.976157,-1.071 -1.979444,-2.90051 -2.753046,-5.02023 l -0.762945,-2.09052 c 0.254316,-2.08606 1.952449,-1.30378 2.228378,0.16028 0.455808,1.09555 1.594195,4.01308 2.524774,5.18803 0.584111,0.73919 1.13242,1.62703 0.274251,2.08077 -0.719745,0.3852 -0.905924,0.34598 -1.511412,-0.31833 z"
           id="path1481"
           sodipodi:nodetypes="ccccscccccccccccccsccscsccssccccsscccccssscccccccsscsscccsscssssccccs" /></g></g></g></svg>
