<svg width="31" height="30" viewBox="0 0 31 30" fill="none" xmlns="http://www.w3.org/2000/svg">
<path fill-rule="evenodd" clip-rule="evenodd" d="M0.621765 15.0065C0.621765 11.0283 2.20212 7.21299 5.01516 4.39994C7.82821 1.5869 11.6435 0.00654602 15.6218 0.00654602C19.6 0.00654602 23.4153 1.5869 26.2284 4.39994C29.0414 7.21299 30.6218 11.0283 30.6218 15.0065C30.6218 18.9848 29.0414 22.8001 26.2284 25.6131C23.4153 28.4262 19.6 30.0065 15.6218 30.0065C11.6435 30.0065 7.82821 28.4262 5.01516 25.6131C2.20212 22.8001 0.621765 18.9848 0.621765 15.0065ZM15.6218 2.15814C13.1314 2.15822 10.6947 2.88205 8.60816 4.24157C6.52161 5.60109 4.87513 7.53769 3.86902 9.81578C2.8629 12.0939 2.54052 14.6153 2.9411 17.0732C3.34168 19.5312 4.44794 21.8197 6.12531 23.6605C7.14364 22.0655 8.54759 20.7528 10.2074 19.844C11.8672 18.9351 13.7294 18.4592 15.6218 18.4604C17.5142 18.459 19.3764 18.9348 21.0363 19.8437C22.6961 20.7526 24.1 22.0653 25.1182 23.6605C26.7956 21.8197 27.9019 19.5312 28.3024 17.0732C28.703 14.6153 28.3806 12.0939 27.3745 9.81578C26.3684 7.53769 24.7219 5.60109 22.6354 4.24157C20.5488 2.88205 18.1121 2.15822 15.6218 2.15814ZM23.5079 25.1507C22.7065 23.7695 21.556 22.6231 20.172 21.8265C18.7879 21.0299 17.2187 20.6111 15.6218 20.612C14.0248 20.6111 12.4557 21.0299 11.0716 21.8265C9.68748 22.6231 8.53707 23.7695 7.73561 25.1507C9.98859 26.9075 12.7648 27.8595 15.6218 27.855C18.5932 27.855 21.3291 26.8448 23.5079 25.1507ZM10.2994 12.753C10.2994 11.3415 10.8602 9.98769 11.8583 8.98956C12.8564 7.99142 14.2102 7.43067 15.6218 7.43067C17.0333 7.43067 18.3871 7.99142 19.3852 8.98956C20.3834 9.98769 20.9441 11.3415 20.9441 12.753C20.9441 14.1646 20.3834 15.5184 19.3852 16.5165C18.3871 17.5147 17.0333 18.0754 15.6218 18.0754C14.2102 18.0754 12.8564 17.5147 11.8583 16.5165C10.8602 15.5184 10.2994 14.1646 10.2994 12.753ZM15.6218 9.58227C15.2054 9.58227 14.7931 9.66428 14.4084 9.82363C14.0237 9.98297 13.6741 10.2165 13.3797 10.511C13.0853 10.8054 12.8517 11.1549 12.6924 11.5396C12.533 11.9243 12.451 12.3366 12.451 12.753C12.451 13.1694 12.533 13.5817 12.6924 13.9664C12.8517 14.3511 13.0853 14.7007 13.3797 14.9951C13.6741 15.2895 14.0237 15.5231 14.4084 15.6824C14.7931 15.8418 15.2054 15.9238 15.6218 15.9238C16.4627 15.9238 17.2692 15.5897 17.8638 14.9951C18.4585 14.4005 18.7925 13.594 18.7925 12.753C18.7925 11.9121 18.4585 11.1056 17.8638 10.511C17.2692 9.91633 16.4627 9.58227 15.6218 9.58227Z" fill="black"/>
</svg>
