<svg width="20" height="21" viewBox="0 0 20 21" fill="none" xmlns="http://www.w3.org/2000/svg">
<path d="M17.05 19.7879L14.125 16.8879L11.925 19.0879L11.225 18.3879C10.8417 18.0045 10.65 17.5295 10.65 16.9629C10.65 16.3962 10.8417 15.9212 11.225 15.5379L15.45 11.3129C15.8333 10.9295 16.3083 10.7379 16.875 10.7379C17.4417 10.7379 17.9167 10.9295 18.3 11.3129L19 12.0129L16.8 14.2129L19.7 17.1379C19.9 17.3379 20 17.5712 20 17.8379C20 18.1045 19.9 18.3379 19.7 18.5379L18.45 19.7879C18.25 19.9879 18.0167 20.0879 17.75 20.0879C17.4833 20.0879 17.25 19.9879 17.05 19.7879ZM20 4.08786L8.65 15.4379L8.775 15.5379C9.15833 15.9212 9.35 16.3962 9.35 16.9629C9.35 17.5295 9.15833 18.0045 8.775 18.3879L8.075 19.0879L5.875 16.8879L2.95 19.7879C2.75 19.9879 2.51667 20.0879 2.25 20.0879C1.98333 20.0879 1.75 19.9879 1.55 19.7879L0.3 18.5379C0.0999999 18.3379 0 18.1045 0 17.8379C0 17.5712 0.0999999 17.3379 0.3 17.1379L3.2 14.2129L1 12.0129L1.7 11.3129C2.08333 10.9295 2.55833 10.7379 3.125 10.7379C3.69167 10.7379 4.16667 10.9295 4.55 11.3129L4.65 11.4379L16 0.0878601H20V4.08786ZM4.95 9.03786L0 4.08786V0.0878601H4L8.95 5.03786L4.95 9.03786Z" fill="black"/>
</svg>
