<svg width="16" height="16" viewBox="0 0 16 16" fill="none" xmlns="http://www.w3.org/2000/svg">
<path fill-rule="evenodd" clip-rule="evenodd" d="M5.8238 0.635782C7.27479 0.241807 8.81151 0.300525 10.2282 0.804073C11.6449 1.30762 12.8739 2.23197 13.7508 3.45334V1.99153C13.7508 1.80808 13.8237 1.63214 13.9534 1.50242C14.0831 1.3727 14.259 1.29982 14.4425 1.29982C14.6259 1.29982 14.8019 1.3727 14.9316 1.50242C15.0613 1.63214 15.1342 1.80808 15.1342 1.99153V5.91121H11.2145C11.0311 5.91121 10.8551 5.83833 10.7254 5.70861C10.5957 5.57889 10.5228 5.40295 10.5228 5.2195C10.5228 5.03605 10.5957 4.86011 10.7254 4.73039C10.8551 4.60067 11.0311 4.52779 11.2145 4.52779H12.8073C12.0848 3.39753 11.0042 2.54223 9.73819 2.09873C8.4722 1.65522 7.09404 1.64914 5.82419 2.08145C4.55434 2.51376 3.46617 3.35948 2.73377 4.48332C2.00137 5.60715 1.66706 6.94416 1.78432 8.28045C1.90159 9.61674 2.46365 10.8751 3.38059 11.8542C4.29754 12.8333 5.51637 13.4766 6.84211 13.6811C8.16785 13.8856 9.52388 13.6396 10.6933 12.9824C11.8627 12.3252 12.7779 11.2947 13.2924 10.0559C13.3258 9.97003 13.376 9.89169 13.4401 9.82548C13.5042 9.75928 13.5809 9.70655 13.6657 9.67039C13.7504 9.63423 13.8416 9.61538 13.9337 9.61493C14.0259 9.61449 14.1172 9.63246 14.2023 9.66779C14.2874 9.70313 14.3646 9.75511 14.4293 9.82069C14.4941 9.88627 14.5451 9.96413 14.5793 10.0497C14.6135 10.1352 14.6303 10.2268 14.6287 10.3189C14.627 10.4111 14.607 10.5019 14.5698 10.5862C14.0891 11.7433 13.3217 12.7588 12.3399 13.5372C11.3581 14.3156 10.1943 14.8311 8.95809 15.0352C7.72192 15.2393 6.45414 15.1253 5.27424 14.7038C4.09435 14.2823 3.04122 13.5674 2.21411 12.6263C1.38701 11.6852 0.813181 10.5489 0.54672 9.3247C0.28026 8.10046 0.329944 6.82852 0.691089 5.6288C1.05224 4.42907 1.71295 3.34107 2.61094 2.46736C3.50893 1.59364 4.61463 0.963916 5.8238 0.635782Z" fill="black"/>
</svg>
