<?xml version="1.0" encoding="UTF-8" standalone="no"?>
<!-- Created with Inkscape (http://www.inkscape.org/) -->

<svg
   width="58.147293mm"
   height="67.462479mm"
   viewBox="0 0 58.147293 67.462479"
   version="1.1"
   id="svg5"
   xml:space="preserve"
   xmlns="http://www.w3.org/2000/svg"
   xmlns:svg="http://www.w3.org/2000/svg"><defs
     id="defs2" /><g
     id="layer1"
     transform="translate(-137.01996,-27.13502)"><g
       id="g313"
       transform="translate(86.804429,-77.603959)"><g
         id="g562"><path
           style="fill:#f8e8d9;stroke-width:0.264655"
           d="m 107.32508,143.75361 c 0.0127,-0.30831 0.0754,-0.37102 0.1599,-0.1599 0.0765,0.19105 0.0671,0.41931 -0.0209,0.50726 -0.088,0.0879 -0.1505,-0.0684 -0.13901,-0.34736 z"
           id="path357" /><path
           style="fill:#f7e7d8;stroke-width:0.264655"
           d="m 107.32508,141.90102 c 0.0127,-0.30831 0.0754,-0.37102 0.1599,-0.1599 0.0765,0.19105 0.0671,0.41932 -0.0209,0.50726 -0.088,0.0879 -0.1505,-0.0684 -0.13901,-0.34736 z m 0.073,-3.15381 c -7.9e-4,-1.31005 0.044,-1.87934 0.0995,-1.2651 0.0555,0.61424 0.0562,1.68609 0.002,2.3819 -0.0547,0.6958 -0.10011,0.19324 -0.10092,-1.1168 z"
           id="path355" /><path
           style="fill:#f6e1d4;stroke-width:0.264655"
           d="m 64.808797,120.48598 c 1.75e-4,-3.49345 0.03783,-4.88599 0.08369,-3.09452 0.04585,1.79146 0.04571,4.64974 -2.65e-4,6.35173 -0.04608,1.70199 -0.08359,0.23624 -0.08342,-3.25721 z"
           id="path353" /><path
           style="fill:#fcc692;stroke-width:0.264655"
           d="m 71.309339,171.97885 c -1.319588,-0.4014 -2.367227,-1.09431 -3.09431,-2.04657 -0.69227,-0.90666 -0.74731,-1.16577 -0.829308,-3.90394 l -0.01283,-3.43286 3.080855,-0.0434 c 2.523412,-0.0356 2.235656,0.2451 2.594677,-0.11363 0.545383,-0.54538 0.516341,-0.19789 -0.0199,-0.73415 -0.576036,-0.57603 -5.094573,-0.93826 -5.664215,-0.36862 -0.329411,0.32941 -0.650049,-0.11056 -1.77494,-0.86811 -1.831358,-1.2333 -4.391251,-4.05871 -5.54254,-6.1174 -1.632146,-2.91856 -2.193731,-5.15273 -2.622201,-10.432 -0.210382,-2.59214 -0.628038,-5.91781 -0.928127,-7.39037 -1.029665,-5.05259 -2.982689,-10.17048 -5.182277,-13.58011 -2.214092,-3.43211 -1.008199,-6.0816 2.954116,-6.49054 2.072146,-0.21387 3.458109,0.4022 5.243696,2.33085 1.864121,2.01347 2.805164,3.39002 4.123178,6.03134 l 1.97873,2.19385 -0.194249,4.30453 c -0.139685,3.09539 0.72962,5.45115 2.201382,7.08356 1.273969,1.41302 2.071223,1.07917 3.994977,1.08647 1.618376,0.006 1.31628,-1.273 2.760072,-1.31368 l 1.731164,-0.0488 1.560151,1.35221 c 2.691159,2.33246 4.327921,0.54089 7.697077,-0.45112 l 1.169161,-0.34424 1.370805,1.07709 c 3.314825,2.60459 5.166537,0.10594 9.064424,-1.57734 l 0.918053,-1.47606 1.635006,0.77482 c 0.455963,0.21607 1.790864,0.51038 2.531374,0.6761 1.71688,0.38422 2.3675,-1.41107 4.17336,-1.43502 l 1.1775,-0.86433 -0.10901,7.0307 c -0.0101,7.0284 -0.29117,10.90474 -0.92848,12.80671 -0.24209,0.72248 -1.09536,2.30339 -1.89616,3.51312 -1.34945,2.03859 -1.15265,2.08591 -1.7003,2.24607 -0.7108,0.20788 -2.6494,-0.63883 -3.122014,-0.16621 -0.174672,0.17467 -0.282229,0.15186 -0.282229,0.55431 0,0.99074 0.233353,0.24524 1.915753,0.79705 l 1.50605,-0.38274 -0.2475,3.56016 c -0.15938,2.29265 -0.0917,2.92776 -0.54342,3.7315 -0.61473,1.09377 -1.86093,2.04032 -3.186919,2.42061 -1.059731,0.30392 -26.504069,0.31332 -27.500719,0.0102 z m 8.115032,-31.4449 c -0.530055,-0.30736 -1.35628,-1.57135 -1.663198,-2.11744 -0.54699,-0.97324 -0.798427,-1.95663 -0.798427,-14.96537 0,-10.6101 -0.07762,-13.94468 0.210991,-14.63541 0.467464,-1.1188 2.749565,-2.22936 3.877937,-2.44105 1.265394,-0.23738 4.887395,1.22137 5.614539,2.39792 0.566601,0.91678 0.14245,1.16649 -0.578385,14.53285 l -0.750038,13.90788 0.253096,1.29667 c 0.241718,1.23837 -2.914304,2.3144 -4.015757,2.30601 -0.438953,-0.003 -1.620704,0.0253 -2.150758,-0.28206 z m 10.158855,-0.53446 c -0.640122,-0.29096 -1.799386,-1.49941 -2.1218,-2.16543 -0.501479,-1.03593 -0.177117,-1.74557 -0.177117,-12.62639 0,-9.06118 0.475021,-12.86702 0.761016,-13.5515 0.467463,-1.1188 1.799517,-2.22936 2.927888,-2.44104 1.265395,-0.23739 3.087304,0.62134 3.814448,1.79788 0.563859,0.91234 2.558073,2.3191 1.721732,14.16266 l -0.250012,12.03761 -0.750757,1.84932 c -0.470589,1.15919 -2.545205,1.72721 -3.686778,1.71906 -0.436682,-0.003 -0.562948,-0.0205 -1.138567,-0.28214 z m -20.131587,-0.74373 c -0.195571,-0.39158 -1.067021,-0.1624 -1.430657,-0.49742 -1.363053,-1.25576 -1.669763,-2.40409 -1.669763,-14.23651 0,-12.04253 -0.167019,-12.46625 1.444789,-13.82249 1.227334,-1.03274 4.952425,-1.04123 6.414623,-0.28832 2.282449,1.17526 1.536757,0.9783 1.664112,14.21055 l 0.10921,11.34702 -1.261018,3.4663 c -0.247055,0.6791 -1.736693,0.52273 -2.25261,0.66605 -1.059789,0.29442 -2.26747,0.65896 -2.742939,-0.29306 z m 31.468501,-2.2679 c -0.979945,-0.45261 -2.459178,-1.43626 -2.831974,-2.42018 -0.173209,-0.45715 -0.524758,-4.12961 -0.524758,-8.28997 0,-6.23944 -0.06385,-7.71604 0.423263,-8.72228 1.340745,-2.76961 6.262449,-2.73334 7.865509,-0.10425 0.47873,0.78514 0.79854,1.76574 0.79854,8.64503 0,6.8793 -0.35877,8.58316 -0.83745,9.3683 -0.98687,1.6185 -3.28947,2.26402 -4.89313,1.52335 z"
           id="path343" /><path
           style="fill:#fcc491;stroke-width:0.264655"
           d="m 106.09504,126.3084 c 1.8e-4,-3.49345 0.0378,-4.88599 0.0837,-3.09452 0.0459,1.79146 0.0457,4.64974 -2.6e-4,6.35173 -0.046,1.70199 -0.0836,0.23624 -0.0834,-3.25721 z"
           id="path341" /><path
           style="fill:#fbc38f;stroke-width:0.264655"
           d="m 95.741362,134.51272 c 0.0016,-0.87336 0.05089,-1.19874 0.109795,-0.72306 0.0589,0.47568 0.05769,1.19025 -0.0027,1.58793 -0.06039,0.39769 -0.10858,0.008 -0.107095,-0.86487 z m 0.01591,-17.59959 c 0,-1.52838 0.04374,-2.15363 0.0972,-1.38944 0.05346,0.7642 0.05346,2.01469 0,2.77888 -0.05346,0.7642 -0.0972,0.13895 -0.0972,-1.38944 z"
           id="path339" /><path
           style="fill:#fbc18e;stroke-width:0.264655"
           d="m 85.417097,112.14934 c 0,-0.80059 0.04962,-1.1281 0.110253,-0.72781 0.06064,0.40029 0.06064,1.05532 0,1.45561 -0.06064,0.40029 -0.110253,0.0728 -0.110253,-0.7278 z"
           id="path337" /><path
           style="fill:#fbc08d;stroke-width:0.264655"
           d="m 95.774095,126.3084 c -1.62e-4,-3.63901 0.03711,-5.1644 0.08283,-3.38976 0.04572,1.77464 0.04585,4.75202 2.65e-4,6.61638 -0.04556,1.86437 -0.08296,0.4124 -0.08313,-3.22662 z"
           id="path335" /><path
           style="fill:#fbbe8a;stroke-width:0.264655"
           d="m 85.458775,125.11745 c 0,-6.04076 0.03474,-8.51198 0.07721,-5.4916 0.04246,3.02038 0.04246,7.96282 0,10.9832 -0.04246,3.02038 -0.07721,0.54916 -0.07721,-5.4916 z"
           id="path333" /><path
           style="fill:#fabb87;stroke-width:0.264655"
           d="m 75.136704,124.58814 c 0,-5.74964 0.03496,-8.10176 0.07768,-5.22694 0.04273,2.87482 0.04273,7.57907 0,10.45389 -0.04273,2.87482 -0.07768,0.52269 -0.07768,-5.22695 z"
           id="path329" /><path
           style="fill:#fab884;stroke-width:0.264655"
           d="m 67.19704,124.58814 c 0,-5.74964 0.03496,-8.10176 0.07768,-5.22694 0.04273,2.87482 0.04273,7.57907 0,10.45389 -0.04273,2.87482 -0.07768,0.52269 -0.07768,-5.22695 z"
           id="path325" /><path
           style="fill:#fab682;stroke-width:0.264655"
           d="m 77.473821,112.01701 c 0.0021,-0.7278 0.05339,-0.99413 0.114217,-0.59184 0.06083,0.40229 0.05921,0.99777 -0.0036,1.32328 -0.06283,0.32551 -0.112603,-0.004 -0.110618,-0.73144 z"
           id="path323" /><path
           style="fill:#fab581;stroke-width:0.264655"
           d="m 77.519688,124.72047 c 6.1e-5,-6.40466 0.03458,-8.98688 0.07671,-5.73827 0.04213,3.24862 0.04208,8.4888 -1.08e-4,11.64484 -0.04219,3.15605 -0.07667,0.49809 -0.07661,-5.90657 z"
           id="path321" /><path
           style="fill:#fab37f;stroke-width:0.264655"
           d="m 87.840674,125.11745 c 0,-6.04076 0.03474,-8.51198 0.0772,-5.4916 0.04246,3.02038 0.04246,7.96282 0,10.9832 -0.04246,3.02038 -0.0772,0.54916 -0.0772,-5.4916 z"
           id="path319" /><path
           style="fill:#f8a570;stroke-width:0.264655"
           d="m 67.402246,162.65369 c -0.179124,-0.17912 -0.325682,-0.52547 -0.325682,-0.76966 0,-0.88079 0.650367,-1.05889 3.58291,-0.98116 2.369363,0.0628 2.893495,0.1528 3.136266,0.53854 0.212216,0.3372 0.212203,0.58911 -4.3e-5,0.9263 -0.243417,0.38672 -0.768136,0.4754 -3.179647,0.53741 -2.020621,0.052 -2.985944,-0.0236 -3.213804,-0.25143 z m 31.750559,-0.008 c -0.864211,-0.86421 -0.118851,-1.79966 1.433955,-1.79966 1.49874,0 2.28952,0.24531 2.28952,0.93704 0,0.8802 -0.84699,1.1802 -2.18847,1.1802 -0.66958,0 -1.360332,-0.14291 -1.535005,-0.31758 z M 79.67897,141.90016 c -0.885305,-0.28124 -1.692461,-0.82156 -2.564165,-1.71651 -0.730404,-0.74988 -1.344894,-1.18839 -1.44296,-1.02972 -0.462626,0.74855 -2.413621,1.64381 -3.87007,1.77588 -2.646086,0.23993 -4.989488,-1.09809 -6.202261,-3.54135 -0.472225,-0.95135 -0.513414,-1.80322 -0.586919,-12.13868 -0.05302,-7.45447 0.01675,-11.49847 0.211841,-12.2782 0.463086,-1.8509 1.644741,-3.3284 3.315799,-4.14598 1.262454,-0.61766 1.696185,-0.69861 3.127603,-0.5837 1.162401,0.0933 1.987213,0.33876 2.744308,0.8167 l 1.08242,0.6833 0.171398,-0.6829 c 0.602004,-2.39858 3.255829,-4.32002 5.96665,-4.32002 2.463794,0 4.539127,1.39595 5.54234,3.72798 0.537214,1.24879 0.614808,1.3191 1.035565,0.93832 1.279668,-1.15809 4.218754,-1.58833 5.935566,-0.8689 2.154804,0.90298 3.887392,3.4184 3.892582,5.65136 l 0.0026,1.11212 1.369881,-0.71072 c 2.615932,-1.3572 5.461582,-0.77509 7.425142,1.51889 1.42152,1.66073 1.52653,2.36245 1.52653,10.20037 0,7.83793 -0.10501,8.53965 -1.52653,10.20037 -1.9715,2.30326 -4.80793,2.87675 -7.449565,1.50622 -0.766929,-0.39786 -1.433461,-0.72339 -1.481242,-0.72339 -0.04778,0 -0.162281,0.34332 -0.254442,0.76294 -0.376102,1.71237 -2.795633,3.73049 -4.959101,4.13636 -1.46554,0.27494 -3.700542,-0.48326 -4.962076,-1.68333 l -1.058111,-1.00656 -0.733169,0.77212 c -1.627131,1.71359 -4.025106,2.33687 -6.25966,1.62703 z m 3.656511,-2.2305 c 0.591807,-0.29324 1.314205,-0.85894 1.605326,-1.25712 0.511272,-0.69928 0.531793,-1.20257 0.602123,-14.76785 l 0.07281,-14.0439 -0.602123,-0.8848 c -0.998053,-1.46661 -1.893255,-1.97319 -3.48691,-1.97319 -1.148218,0 -1.602266,0.14231 -2.403233,0.75324 -1.755552,1.33903 -1.72535,1.06111 -1.72535,15.87542 0,8.81824 0.09591,13.60952 0.282285,14.10141 0.584539,1.54276 2.200062,2.69821 3.802482,2.71959 0.427114,0.006 1.260779,-0.22957 1.852588,-0.5228 z m 10.467944,-0.0689 c 2.17118,-1.14815 2.120584,-0.80393 2.120584,-14.42614 0,-13.10855 0.03289,-12.81177 -1.569243,-14.15987 -1.708404,-1.43753 -4.503153,-1.00739 -5.865498,0.90275 l -0.637251,0.89349 -0.07868,11.64484 c -0.04327,6.40467 -0.0088,12.0284 0.07669,12.49718 0.193749,1.06286 1.307163,2.41429 2.370763,2.87756 1.190333,0.51848 2.30251,0.44714 3.58263,-0.22981 z m -20.508358,-1.22488 c 0.436187,-0.24818 1.061435,-0.84947 1.389441,-1.33619 0.596134,-0.88461 0.596375,-0.88966 0.596375,-12.45153 0,-11.55928 -2.65e-4,-11.56711 -0.595475,-12.4415 -0.991413,-1.45668 -1.889492,-1.96332 -3.480262,-1.96332 -1.148218,0 -1.602266,0.14232 -2.403233,0.75324 -1.730431,1.31986 -1.725349,1.27961 -1.725349,13.66925 0,9.5864 0.0583,11.27306 0.41572,12.02626 1.066525,2.24754 3.586474,3.0048 5.802783,1.74379 z m 30.829913,-2.21564 c 2.06714,-1.09312 2.12059,-1.34537 2.12059,-10.00704 0,-7.41943 -0.0122,-7.59162 -0.59548,-8.44621 -1.68448,-2.46778 -5.04782,-2.41855 -6.930846,0.10144 -0.513929,0.68777 -0.550375,1.14089 -0.626662,7.79098 -0.04455,3.88341 -0.01003,7.4443 0.0767,7.91308 0.196869,1.06409 1.310841,2.41488 2.373078,2.87756 1.19034,0.51848 2.30251,0.44714 3.58263,-0.22981 z"
           id="path315" /></g></g></g></svg>
