<svg width="31" height="31" viewBox="0 0 31 31" fill="none" xmlns="http://www.w3.org/2000/svg">
<g clip-path="url(#clip0_1_32)">
<path d="M6.89559 29.7093H13.3242M10.1099 29.7093V25.4236M1.53845 14.7093V23.2807C1.53845 23.8491 1.76422 24.3941 2.16608 24.796C2.56794 25.1978 3.11299 25.4236 3.68131 25.4236H16.5385C17.1068 25.4236 17.6518 25.1978 18.0537 24.796C18.4555 24.3941 18.6813 23.8491 18.6813 23.2807V14.7093C18.6813 14.141 18.4555 13.5959 18.0537 13.1941C17.6518 12.7922 17.1068 12.5665 16.5385 12.5665H3.68131C3.11299 12.5665 2.56794 12.7922 2.16608 13.1941C1.76422 13.5959 1.53845 14.141 1.53845 14.7093Z" stroke="black" stroke-width="2.55185" stroke-linecap="round" stroke-linejoin="round"/>
<path d="M16.5385 8.28074V7.20931C16.5385 6.92515 16.6513 6.65262 16.8523 6.45169C17.0532 6.25076 17.3257 6.13788 17.6099 6.13788H28.3242C28.6083 6.13788 28.8809 6.25076 29.0818 6.45169C29.2827 6.65262 29.3956 6.92515 29.3956 7.20931V28.6379C29.3956 28.922 29.2827 29.1946 29.0818 29.3955C28.8809 29.5964 28.6083 29.7093 28.3242 29.7093H19.7527" stroke="black" stroke-width="2.55185" stroke-linecap="round" stroke-linejoin="round"/>
<path d="M22.967 15.7807H29.3956M24.842 11.2272C24.771 11.2272 24.7029 11.1989 24.6526 11.1487C24.6024 11.0985 24.5742 11.0303 24.5742 10.9593C24.5742 10.8883 24.6024 10.8201 24.6526 10.7699C24.7029 10.7197 24.771 10.6915 24.842 10.6915C24.9131 10.6915 24.9812 10.7197 25.0314 10.7699C25.0817 10.8201 25.1099 10.8883 25.1099 10.9593C25.1099 11.0303 25.0817 11.0985 25.0314 11.1487C24.9812 11.1989 24.9131 11.2272 24.842 11.2272Z" stroke="black" stroke-width="2.55185" stroke-linecap="round" stroke-linejoin="round"/>
</g>
<defs>
<clipPath id="clip0_1_32">
<rect width="30" height="30" fill="white" transform="translate(0.467003 0.780746)"/>
</clipPath>
</defs>
</svg>
